<svg width="166" height="40" viewBox="0 0 166 40" fill="none" xmlns="http://www.w3.org/2000/svg">
<ellipse cx="36.974" cy="3.70197" rx="3.73527" ry="3.70197" fill="black"></ellipse>
<path d="M46.7181 18.0484C42.5608 9.80798 37.591 10.0197 34.0431 9.2005C30.4959 8.38188 28.455 1.97366 28.455 1.97366C28.2397 1.046 27.7053 0.859088 27.7053 0.859088C26.6832 0.656596 26.5126 1.84905 26.5126 1.84905C25.8991 7.42018 30.5675 11.8006 30.5675 11.8006C31.5896 12.6106 31.6659 16.3558 31.6659 16.3558H31.6449L31.6624 39.317H38.9973V26.8277V16.3558C38.9973 15.4028 39.9158 14.5997 41.0695 15.333C42.2232 16.0662 44.7425 19.3309 44.7425 19.3309C45.3555 20.3445 46.7187 19.9401 46.7187 19.9401C47.1954 19.2634 46.7181 18.0484 46.7181 18.0484Z" fill="black"></path>
<path fill-rule="evenodd" clip-rule="evenodd" d="M21.861 4.84309C20.2905 4.19697 18.3847 3.8739 16.1454 3.8739H0V39.3556H7.87219V26.6344H16.1454C18.3842 26.6344 20.2899 26.3107 21.861 25.664C23.4321 25.0179 24.7109 24.1652 25.6976 23.1049C26.683 22.0445 27.4025 20.8279 27.8536 19.4525C28.3047 18.0784 28.5306 16.6782 28.5306 15.2538C28.5306 13.796 28.3047 12.3884 27.8536 11.0298C27.4019 9.67176 26.683 8.46257 25.6976 7.40223C24.7109 6.34188 23.4321 5.48922 21.861 4.84309ZM16.5966 20.371C15.7607 20.5042 14.8916 20.5706 13.9894 20.5706H7.87219V9.93597H13.9894C14.8916 9.93597 15.7607 10.0023 16.5966 10.1344C17.4319 10.2677 18.167 10.5244 18.8027 10.9052C19.4372 11.2859 19.9477 11.8242 20.3318 12.5199C20.716 13.2151 20.9087 14.1272 20.9087 15.2533C20.9087 16.38 20.716 17.2903 20.3318 17.986C19.9477 18.6818 19.4372 19.2206 18.8027 19.6014C18.167 19.9821 17.4319 20.2388 16.5966 20.371Z" fill="black"></path>
<path d="M54.0018 18.2848C52.865 18.2848 51.9121 18.5421 51.1437 19.055C50.3742 19.569 49.7473 20.2319 49.2636 21.043C48.7787 21.8553 48.4364 22.7501 48.2356 23.7256C48.0348 24.7034 47.9341 25.6726 47.9341 26.6338C47.9341 27.5608 48.0348 28.5052 48.2356 29.4663C48.4364 30.4275 48.7618 31.2963 49.2135 32.0745C49.6647 32.8533 50.2741 33.4908 51.0436 33.9875C51.812 34.4842 52.7486 34.7334 53.8516 34.7334C55.556 34.7334 56.868 34.2615 57.7871 33.3172C58.7063 32.3716 59.2831 31.1053 59.5171 29.5142H66.3864C65.9178 32.9272 64.5813 35.5278 62.3752 37.3168C60.1691 39.1052 57.3436 39.9994 53.9011 39.9994C51.9616 39.9994 50.1821 39.6769 48.5604 39.0314C46.9387 38.3846 45.5603 37.4818 44.4247 36.3217C43.2878 35.1632 42.4013 33.7798 41.7668 32.1732C41.1318 30.5665 40.814 28.8017 40.814 26.8807C40.814 24.8932 41.1062 23.0466 41.6918 21.3401C42.2762 19.6336 43.1371 18.1591 44.2739 16.917C45.4102 15.6744 46.7973 14.7058 48.4359 14.01C50.0733 13.3143 51.9459 12.9658 54.0519 12.9658C55.5892 12.9658 57.0677 13.1649 58.4891 13.5623C59.9094 13.9598 61.1801 14.565 62.3001 15.3761C63.4195 16.1884 64.331 17.1985 65.0324 18.4077C65.735 19.6169 66.1361 21.0494 66.2356 22.7068H59.2657C58.7982 19.7594 57.0432 18.2848 54.0018 18.2848Z" fill="black"></path>
<path d="M75.1606 3.8739V22.907L84.1358 13.6639H92.5598L82.7825 23.1055L93.6623 39.3556H85.0381L77.9185 27.8764L75.1606 30.5106V39.3556H68.041V3.8739H75.1606Z" fill="black"></path>
<path d="M105.997 3.8739L114.37 28.2733H114.471L122.393 3.8739H133.474V39.355H126.103V14.2102H126.003L117.228 39.355H111.162L102.387 14.4583H102.287V39.355H94.9155V3.8739H105.997Z" fill="#FDB940"></path>
<path fill-rule="evenodd" clip-rule="evenodd" d="M148.868 34.734C146.862 34.734 145.324 34.22 144.255 33.1925C143.185 32.1662 142.6 30.51 142.499 28.222H161.202C161.335 26.2345 161.168 24.3302 160.7 22.5072C160.232 20.6853 159.473 19.0619 158.419 17.637C157.366 16.2138 156.02 15.0779 154.382 14.2333C152.745 13.3887 150.823 12.9658 148.616 12.9658C146.644 12.9658 144.847 13.3143 143.226 14.01C141.605 14.7058 140.209 15.6588 139.04 16.8674C137.87 18.0772 136.967 19.5096 136.332 21.1659C135.697 22.8233 135.38 24.6117 135.38 26.5328C135.38 28.5208 135.688 30.3438 136.307 32.0001C136.925 33.6564 137.803 35.0807 138.939 36.2738C140.075 37.4656 141.463 38.3852 143.101 39.0319C144.739 39.6775 146.577 40 148.616 40C151.559 40 154.064 39.3388 156.138 38.0125C158.21 36.6886 159.748 34.4848 160.751 31.403H154.482C154.249 32.1985 153.613 32.9526 152.578 33.6644C151.541 34.3781 150.305 34.734 148.868 34.734ZM148.416 18.2843C150.155 18.2843 151.45 18.7493 152.302 19.6758C153.155 20.6034 153.748 21.9626 154.082 23.7504H142.499C142.532 23.2543 142.641 22.6912 142.825 22.0612C143.009 21.4313 143.327 20.8365 143.778 20.2728C144.229 19.7092 144.831 19.2367 145.584 18.8554C146.335 18.4758 147.28 18.2843 148.416 18.2843Z" fill="#FDB940"></path>
<path d="M161.001 38.7048V35.8844H159.938V35.5071H162.496V35.8844H161.428V38.7048H161.001Z" fill="black"></path>
<path d="M162.92 38.7048V35.5071H163.563L164.327 37.7708C164.398 37.9826 164.449 38.1395 164.481 38.2439C164.518 38.1291 164.575 37.9578 164.654 37.7322L165.425 35.5071H166V38.7048H165.588V36.0286L164.651 38.7048H164.266L163.333 35.9824V38.7048H162.92Z" fill="black"></path>
</svg>